<svg id="visual" viewBox="0 0 900 600" width="900" height="600" xmlns="http://www.w3.org/2000/svg" xmlns:xlink="http://www.w3.org/1999/xlink" version="1.1"><g stroke-width="1" stroke-linejoin="bevel"><path d="M443 286.9L477 275L445 281.1Z" fill="#112838" stroke="#112838"></path><path d="M443 286.9L435 323.9L477 275Z" fill="#112838" stroke="#112838"></path><path d="M477 275L444 240.1L445 281.1Z" fill="#082030" stroke="#082030"></path><path d="M497 250L444 240.1L477 275Z" fill="#0d2434" stroke="#0d2434"></path><path d="M445 281.1L391 290L443 286.9Z" fill="#000a1d" stroke="#000a1d"></path><path d="M443 286.9L391 290L435 323.9Z" fill="#001020" stroke="#001020"></path><path d="M444 240.1L434 242.3L445 281.1Z" fill="#1a3041" stroke="#1a3041"></path><path d="M505 366.7L513 254.1L477 275Z" fill="#082030" stroke="#082030"></path><path d="M477 275L513 254.1L497 250Z" fill="#1a3041" stroke="#1a3041"></path><path d="M468 189.4L440 231L444 240.1Z" fill="#001020" stroke="#001020"></path><path d="M444 240.1L440 231L434 242.3Z" fill="#0d2434" stroke="#0d2434"></path><path d="M468 189.4L444 240.1L497 250Z" fill="#000000" stroke="#000000"></path><path d="M513 254.1L512 242.3L497 250Z" fill="#041c2c" stroke="#041c2c"></path><path d="M512 242.3L508 234L497 250Z" fill="#112838" stroke="#112838"></path><path d="M354 262L391 290L434 242.3Z" fill="#0d2434" stroke="#0d2434"></path><path d="M434 242.3L391 290L445 281.1Z" fill="#001424" stroke="#001424"></path><path d="M435 323.9L505 366.7L477 275Z" fill="#112838" stroke="#112838"></path><path d="M468 189.4L433 202.3L440 231Z" fill="#041c2c" stroke="#041c2c"></path><path d="M440 231L433 202.3L434 242.3Z" fill="#1a3041" stroke="#1a3041"></path><path d="M391 290L419 377.9L435 323.9Z" fill="#001424" stroke="#001424"></path><path d="M435 323.9L419 377.9L505 366.7Z" fill="#000000" stroke="#000000"></path><path d="M508 234L468 189.4L497 250Z" fill="#1a3041" stroke="#1a3041"></path><path d="M419 377.9L423 386.7L505 366.7Z" fill="#0d2434" stroke="#0d2434"></path><path d="M478 418.6L522 382.9L505 366.7Z" fill="#001020" stroke="#001020"></path><path d="M586 347.7L572 261.1L513 254.1Z" fill="#001424" stroke="#001424"></path><path d="M586 347.7L513 254.1L505 366.7Z" fill="#001424" stroke="#001424"></path><path d="M513 254.1L558 217.1L512 242.3Z" fill="#041c2c" stroke="#041c2c"></path><path d="M512 242.3L558 217.1L508 234Z" fill="#001424" stroke="#001424"></path><path d="M508 234L558 165.7L468 189.4Z" fill="#001424" stroke="#001424"></path><path d="M391 194.4L354 262L434 242.3Z" fill="#1a3041" stroke="#1a3041"></path><path d="M391 290L361 390.7L419 377.9Z" fill="#001020" stroke="#001020"></path><path d="M419 377.9L361 390.7L423 386.7Z" fill="#001828" stroke="#001828"></path><path d="M572 261.1L558 217.1L513 254.1Z" fill="#112838" stroke="#112838"></path><path d="M385 185.4L391 194.4L433 202.3Z" fill="#162c3d" stroke="#162c3d"></path><path d="M433 202.3L391 194.4L434 242.3Z" fill="#001424" stroke="#001424"></path><path d="M335 205.3L338 279.9L354 262Z" fill="#0d2434" stroke="#0d2434"></path><path d="M354 262L338 279.9L391 290Z" fill="#000000" stroke="#000000"></path><path d="M423 386.7L478 418.6L505 366.7Z" fill="#082030" stroke="#082030"></path><path d="M437 137.6L385 185.4L433 202.3Z" fill="#041c2c" stroke="#041c2c"></path><path d="M391 194.4L376 191.3L354 262Z" fill="#082030" stroke="#082030"></path><path d="M385 185.4L376 191.3L391 194.4Z" fill="#001424" stroke="#001424"></path><path d="M600 373.6L586 347.7L522 382.9Z" fill="#0d2434" stroke="#0d2434"></path><path d="M522 382.9L586 347.7L505 366.7Z" fill="#112838" stroke="#112838"></path><path d="M338 279.9L361 390.7L391 290Z" fill="#000a1d" stroke="#000a1d"></path><path d="M423 386.7L458 451.7L478 418.6Z" fill="#1a3041" stroke="#1a3041"></path><path d="M586 347.7L602 332.9L572 261.1Z" fill="#112838" stroke="#112838"></path><path d="M572 261.1L609 228.4L558 217.1Z" fill="#001828" stroke="#001828"></path><path d="M503 434.3L502 431.4L478 418.6Z" fill="#0d2434" stroke="#0d2434"></path><path d="M478 418.6L502 431.4L522 382.9Z" fill="#000a1d" stroke="#000a1d"></path><path d="M586 347.7L612 355.9L602 332.9Z" fill="#001828" stroke="#001828"></path><path d="M612 276.3L607 259L572 261.1Z" fill="#112838" stroke="#112838"></path><path d="M458 451.7L503 434.3L478 418.6Z" fill="#112838" stroke="#112838"></path><path d="M502 431.4L530 433.4L522 382.9Z" fill="#162c3d" stroke="#162c3d"></path><path d="M602 332.9L612 276.3L572 261.1Z" fill="#041c2c" stroke="#041c2c"></path><path d="M346 175.1L335 205.3L376 191.3Z" fill="#001828" stroke="#001828"></path><path d="M376 191.3L335 205.3L354 262Z" fill="#000a1d" stroke="#000a1d"></path><path d="M454 128.6L437 137.6L468 189.4Z" fill="#041c2c" stroke="#041c2c"></path><path d="M468 189.4L437 137.6L433 202.3Z" fill="#001828" stroke="#001828"></path><path d="M385 185.4L346 175.1L376 191.3Z" fill="#000000" stroke="#000000"></path><path d="M607 179.1L558 165.7L558 217.1Z" fill="#112838" stroke="#112838"></path><path d="M558 217.1L558 165.7L508 234Z" fill="#001828" stroke="#001828"></path><path d="M503 434.3L530 433.4L502 431.4Z" fill="#0d2434" stroke="#0d2434"></path><path d="M296 354L353 403.6L361 390.7Z" fill="#1a3041" stroke="#1a3041"></path><path d="M361 390.7L379 451.3L423 386.7Z" fill="#162c3d" stroke="#162c3d"></path><path d="M652 217.3L609 228.4L607 259Z" fill="#0d2434" stroke="#0d2434"></path><path d="M607 259L609 228.4L572 261.1Z" fill="#112838" stroke="#112838"></path><path d="M586 418.6L600 373.6L522 382.9Z" fill="#000000" stroke="#000000"></path><path d="M602 332.9L635 300L612 276.3Z" fill="#001828" stroke="#001828"></path><path d="M379 451.3L458 451.7L423 386.7Z" fill="#1a3041" stroke="#1a3041"></path><path d="M503 434.3L536 449.6L530 433.4Z" fill="#162c3d" stroke="#162c3d"></path><path d="M600 373.6L612 355.9L586 347.7Z" fill="#112838" stroke="#112838"></path><path d="M558 165.7L454 128.6L468 189.4Z" fill="#000000" stroke="#000000"></path><path d="M329 176.4L328 141.7L317 167.3Z" fill="#112838" stroke="#112838"></path><path d="M338 138.4L346 175.1L385 185.4Z" fill="#082030" stroke="#082030"></path><path d="M245 283.1L297 304.9L338 279.9Z" fill="#001828" stroke="#001828"></path><path d="M338 279.9L296 354L361 390.7Z" fill="#001828" stroke="#001828"></path><path d="M245 283.1L338 279.9L335 205.3Z" fill="#001020" stroke="#001020"></path><path d="M285 423.4L350 417.9L353 403.6Z" fill="#000000" stroke="#000000"></path><path d="M353 403.6L379 451.3L361 390.7Z" fill="#001828" stroke="#001828"></path><path d="M638 321.9L635 300L602 332.9Z" fill="#041c2c" stroke="#041c2c"></path><path d="M612 276.3L652 217.3L607 259Z" fill="#112838" stroke="#112838"></path><path d="M537 456.7L536 449.6L503 434.3Z" fill="#001020" stroke="#001020"></path><path d="M530 433.4L586 418.6L522 382.9Z" fill="#041c2c" stroke="#041c2c"></path><path d="M379 103.6L385 185.4L437 137.6Z" fill="#0d2434" stroke="#0d2434"></path><path d="M346 175.1L329 176.4L335 205.3Z" fill="#162c3d" stroke="#162c3d"></path><path d="M536 449.6L586 418.6L530 433.4Z" fill="#112838" stroke="#112838"></path><path d="M600 373.6L649 372.7L612 355.9Z" fill="#041c2c" stroke="#041c2c"></path><path d="M612 355.9L638 321.9L602 332.9Z" fill="#162c3d" stroke="#162c3d"></path><path d="M649 372.7L638 321.9L612 355.9Z" fill="#001020" stroke="#001020"></path><path d="M297 304.9L296 354L338 279.9Z" fill="#0d2434" stroke="#0d2434"></path><path d="M350 417.9L379 451.3L353 403.6Z" fill="#000a1d" stroke="#000a1d"></path><path d="M481 497.3L537 456.7L503 434.3Z" fill="#1a3041" stroke="#1a3041"></path><path d="M536 449.6L537 456.7L586 418.6Z" fill="#082030" stroke="#082030"></path><path d="M481 497.3L503 434.3L458 451.7Z" fill="#001424" stroke="#001424"></path><path d="M652 217.3L607 179.1L609 228.4Z" fill="#082030" stroke="#082030"></path><path d="M609 228.4L607 179.1L558 217.1Z" fill="#001828" stroke="#001828"></path><path d="M473 93.7L427 106.7L454 128.6Z" fill="#1a3041" stroke="#1a3041"></path><path d="M473 93.7L454 128.6L548 103.4Z" fill="#1a3041" stroke="#1a3041"></path><path d="M454 128.6L427 106.7L437 137.6Z" fill="#162c3d" stroke="#162c3d"></path><path d="M328 141.7L329 176.4L346 175.1Z" fill="#1a3041" stroke="#1a3041"></path><path d="M329 176.4L317 167.3L335 205.3Z" fill="#000000" stroke="#000000"></path><path d="M548 103.4L454 128.6L558 165.7Z" fill="#001828" stroke="#001828"></path><path d="M379 103.6L338 138.4L385 185.4Z" fill="#000000" stroke="#000000"></path><path d="M435 496.1L465 489.6L458 451.7Z" fill="#162c3d" stroke="#162c3d"></path><path d="M348 72.6L328 141.7L338 138.4Z" fill="#162c3d" stroke="#162c3d"></path><path d="M338 138.4L328 141.7L346 175.1Z" fill="#1a3041" stroke="#1a3041"></path><path d="M346 485.6L383 476.1L379 451.3Z" fill="#041c2c" stroke="#041c2c"></path><path d="M379 451.3L383 476.1L458 451.7Z" fill="#001828" stroke="#001828"></path><path d="M331 456.7L379 451.3L350 417.9Z" fill="#0d2434" stroke="#0d2434"></path><path d="M635 300L652 217.3L612 276.3Z" fill="#041c2c" stroke="#041c2c"></path><path d="M729 269.9L652 217.3L635 300Z" fill="#001020" stroke="#001020"></path><path d="M667 368.6L702 407.9L687 374.9Z" fill="#112838" stroke="#112838"></path><path d="M626 440.3L649 372.7L600 373.6Z" fill="#1a3041" stroke="#1a3041"></path><path d="M638 321.9L729 269.9L635 300Z" fill="#001424" stroke="#001424"></path><path d="M416 69.9L379 103.6L427 106.7Z" fill="#001424" stroke="#001424"></path><path d="M427 106.7L379 103.6L437 137.6Z" fill="#001020" stroke="#001020"></path><path d="M569 105.9L558 165.7L599 114.9Z" fill="#000000" stroke="#000000"></path><path d="M569 105.9L548 103.4L558 165.7Z" fill="#000a1d" stroke="#000a1d"></path><path d="M490 522.1L481 497.3L465 489.6Z" fill="#000000" stroke="#000000"></path><path d="M465 489.6L481 497.3L458 451.7Z" fill="#112838" stroke="#112838"></path><path d="M383 476.1L435 496.1L458 451.7Z" fill="#001424" stroke="#001424"></path><path d="M512 507.6L545 485.4L537 456.7Z" fill="#0d2434" stroke="#0d2434"></path><path d="M537 456.7L545 485.4L586 418.6Z" fill="#001424" stroke="#001424"></path><path d="M300 446.6L331 456.7L350 417.9Z" fill="#000000" stroke="#000000"></path><path d="M383 476.1L404 600L435 496.1Z" fill="#001828" stroke="#001828"></path><path d="M619 133.4L558 165.7L607 179.1Z" fill="#001424" stroke="#001424"></path><path d="M548 103.4L514 73.6L473 93.7Z" fill="#0d2434" stroke="#0d2434"></path><path d="M254 352.6L262 366L296 354Z" fill="#112838" stroke="#112838"></path><path d="M296 354L285 423.4L353 403.6Z" fill="#041c2c" stroke="#041c2c"></path><path d="M254 352.6L296 354L297 304.9Z" fill="#0d2434" stroke="#0d2434"></path><path d="M328 141.7L291 159.6L317 167.3Z" fill="#162c3d" stroke="#162c3d"></path><path d="M317 167.3L291 159.6L335 205.3Z" fill="#0d2434" stroke="#0d2434"></path><path d="M264 113.7L291 159.6L328 141.7Z" fill="#001424" stroke="#001424"></path><path d="M626 440.3L600 373.6L586 418.6Z" fill="#000000" stroke="#000000"></path><path d="M649 372.7L667 368.6L638 321.9Z" fill="#001424" stroke="#001424"></path><path d="M245 283.1L254 352.6L297 304.9Z" fill="#1a3041" stroke="#1a3041"></path><path d="M230 206.1L245 283.1L335 205.3Z" fill="#112838" stroke="#112838"></path><path d="M558 88.7L550 89.6L548 103.4Z" fill="#1a3041" stroke="#1a3041"></path><path d="M246 381.6L268 392.7L262 366Z" fill="#0d2434" stroke="#0d2434"></path><path d="M262 366L268 392.7L296 354Z" fill="#000000" stroke="#000000"></path><path d="M545 485.4L626 440.3L586 418.6Z" fill="#001424" stroke="#001424"></path><path d="M639 139.3L619 133.4L607 179.1Z" fill="#162c3d" stroke="#162c3d"></path><path d="M569 105.9L558 88.7L548 103.4Z" fill="#1a3041" stroke="#1a3041"></path><path d="M619 133.4L599 114.9L558 165.7Z" fill="#041c2c" stroke="#041c2c"></path><path d="M481 497.3L512 507.6L537 456.7Z" fill="#000a1d" stroke="#000a1d"></path><path d="M654 453.4L645 438.3L626 440.3Z" fill="#112838" stroke="#112838"></path><path d="M507 518.4L512 507.6L490 522.1Z" fill="#000000" stroke="#000000"></path><path d="M268 392.7L285 423.4L296 354Z" fill="#162c3d" stroke="#162c3d"></path><path d="M532 74.9L514 73.6L548 103.4Z" fill="#001828" stroke="#001828"></path><path d="M473 93.7L416 69.9L427 106.7Z" fill="#001828" stroke="#001828"></path><path d="M573 65.7L558 88.7L569 105.9Z" fill="#082030" stroke="#082030"></path><path d="M550 89.6L532 74.9L548 103.4Z" fill="#000a1d" stroke="#000a1d"></path><path d="M514 73.6L488 66.6L473 93.7Z" fill="#162c3d" stroke="#162c3d"></path><path d="M285 423.4L300 446.6L350 417.9Z" fill="#082030" stroke="#082030"></path><path d="M331 456.7L346 485.6L379 451.3Z" fill="#041c2c" stroke="#041c2c"></path><path d="M488 66.6L416 69.9L473 93.7Z" fill="#0d2434" stroke="#0d2434"></path><path d="M379 103.6L348 72.6L338 138.4Z" fill="#001020" stroke="#001020"></path><path d="M558 88.7L532 74.9L550 89.6Z" fill="#112838" stroke="#112838"></path><path d="M447 0L443 24.7L501 0Z" fill="#000000" stroke="#000000"></path><path d="M327 517.4L346 485.6L331 456.7Z" fill="#000000" stroke="#000000"></path><path d="M490 522.1L512 507.6L481 497.3Z" fill="#041c2c" stroke="#041c2c"></path><path d="M490 522.1L465 489.6L435 496.1Z" fill="#001828" stroke="#001828"></path><path d="M512 507.6L509 533.1L545 485.4Z" fill="#041c2c" stroke="#041c2c"></path><path d="M619 133.4L624 120.9L599 114.9Z" fill="#1a3041" stroke="#1a3041"></path><path d="M599 114.9L573 65.7L569 105.9Z" fill="#1a3041" stroke="#1a3041"></path><path d="M685 171.3L639 139.3L607 179.1Z" fill="#112838" stroke="#112838"></path><path d="M488 543.1L490 522.1L435 496.1Z" fill="#082030" stroke="#082030"></path><path d="M639 139.3L624 120.9L619 133.4Z" fill="#041c2c" stroke="#041c2c"></path><path d="M558 88.7L573 65.7L532 74.9Z" fill="#041c2c" stroke="#041c2c"></path><path d="M654 453.4L626 440.3L670 534.3Z" fill="#082030" stroke="#082030"></path><path d="M626 440.3L645 438.3L649 372.7Z" fill="#1a3041" stroke="#1a3041"></path><path d="M268 392.7L265 414.7L285 423.4Z" fill="#0d2434" stroke="#0d2434"></path><path d="M285 423.4L251 430.7L300 446.6Z" fill="#162c3d" stroke="#162c3d"></path><path d="M246 381.6L265 414.7L268 392.7Z" fill="#001020" stroke="#001020"></path><path d="M198 359.9L246 381.6L254 352.6Z" fill="#162c3d" stroke="#162c3d"></path><path d="M254 352.6L246 381.6L262 366Z" fill="#001828" stroke="#001828"></path><path d="M702 407.9L667 368.6L649 372.7Z" fill="#0d2434" stroke="#0d2434"></path><path d="M667 368.6L687 374.9L638 321.9Z" fill="#1a3041" stroke="#1a3041"></path><path d="M652 217.3L685 171.3L607 179.1Z" fill="#0d2434" stroke="#0d2434"></path><path d="M212 274.3L218 314L245 283.1Z" fill="#000000" stroke="#000000"></path><path d="M245 283.1L218 314L254 352.6Z" fill="#000a1d" stroke="#000a1d"></path><path d="M490 522.1L509 533.1L507 518.4Z" fill="#001424" stroke="#001424"></path><path d="M507 518.4L509 533.1L512 507.6Z" fill="#001828" stroke="#001828"></path><path d="M488 543.1L509 533.1L490 522.1Z" fill="#001424" stroke="#001424"></path><path d="M414 27.7L348 72.6L416 69.9Z" fill="#112838" stroke="#112838"></path><path d="M416 69.9L348 72.6L379 103.6Z" fill="#082030" stroke="#082030"></path><path d="M702 407.9L696 377L687 374.9Z" fill="#0d2434" stroke="#0d2434"></path><path d="M687 374.9L729 269.9L638 321.9Z" fill="#1a3041" stroke="#1a3041"></path><path d="M237 178.3L230 206.1L291 159.6Z" fill="#162c3d" stroke="#162c3d"></path><path d="M291 159.6L230 206.1L335 205.3Z" fill="#162c3d" stroke="#162c3d"></path><path d="M652 77.6L573 65.7L599 114.9Z" fill="#162c3d" stroke="#162c3d"></path><path d="M443 24.7L488 66.6L501 0Z" fill="#0d2434" stroke="#0d2434"></path><path d="M666 463.7L654 453.4L670 534.3Z" fill="#1a3041" stroke="#1a3041"></path><path d="M645 438.3L702 407.9L649 372.7Z" fill="#000a1d" stroke="#000a1d"></path><path d="M718 195.1L685 171.3L652 217.3Z" fill="#001020" stroke="#001020"></path><path d="M639 139.3L657 106.7L624 120.9Z" fill="#041c2c" stroke="#041c2c"></path><path d="M624 120.9L652 77.6L599 114.9Z" fill="#000000" stroke="#000000"></path><path d="M230 206.1L212 274.3L245 283.1Z" fill="#000000" stroke="#000000"></path><path d="M264 113.7L237 178.3L291 159.6Z" fill="#041c2c" stroke="#041c2c"></path><path d="M230 206.1L195 250.1L212 274.3Z" fill="#0d2434" stroke="#0d2434"></path><path d="M473 585.3L488 543.1L453 587.3Z" fill="#0d2434" stroke="#0d2434"></path><path d="M198 359.9L251 430.7L246 381.6Z" fill="#041c2c" stroke="#041c2c"></path><path d="M246 381.6L251 430.7L265 414.7Z" fill="#001020" stroke="#001020"></path><path d="M265 414.7L251 430.7L285 423.4Z" fill="#082030" stroke="#082030"></path><path d="M300 446.6L327 517.4L331 456.7Z" fill="#112838" stroke="#112838"></path><path d="M685 171.3L682 152.6L639 139.3Z" fill="#082030" stroke="#082030"></path><path d="M488 543.1L511 546.1L509 533.1Z" fill="#162c3d" stroke="#162c3d"></path><path d="M509 533.1L511 546.1L545 485.4Z" fill="#001020" stroke="#001020"></path><path d="M248 507.3L327 517.4L300 446.6Z" fill="#000a1d" stroke="#000a1d"></path><path d="M346 485.6L327 517.4L383 476.1Z" fill="#000a1d" stroke="#000a1d"></path><path d="M654 453.4L681 442.4L645 438.3Z" fill="#041c2c" stroke="#041c2c"></path><path d="M666 463.7L681 442.4L654 453.4Z" fill="#001828" stroke="#001828"></path><path d="M681 442.4L702 407.9L645 438.3Z" fill="#112838" stroke="#112838"></path><path d="M755 315L729 269.9L687 374.9Z" fill="#0d2434" stroke="#0d2434"></path><path d="M670 534.3L626 440.3L545 485.4Z" fill="#112838" stroke="#112838"></path><path d="M738 266L729 269.9L755 315Z" fill="#000a1d" stroke="#000a1d"></path><path d="M685 171.3L718 164.6L682 152.6Z" fill="#041c2c" stroke="#041c2c"></path><path d="M348 72.6L264 113.7L328 141.7Z" fill="#162c3d" stroke="#162c3d"></path><path d="M488 66.6L502 0L501 0Z" fill="#001828" stroke="#001828"></path><path d="M488 66.6L443 24.7L416 69.9Z" fill="#000000" stroke="#000000"></path><path d="M348 72.6L257 91.4L264 113.7Z" fill="#001424" stroke="#001424"></path><path d="M682 152.6L657 106.7L639 139.3Z" fill="#112838" stroke="#112838"></path><path d="M443 24.7L414 27.7L416 69.9Z" fill="#1a3041" stroke="#1a3041"></path><path d="M159 204.4L195 250.1L230 206.1Z" fill="#001020" stroke="#001020"></path><path d="M212 274.3L168 284.1L218 314Z" fill="#041c2c" stroke="#041c2c"></path><path d="M218 314L198 359.9L254 352.6Z" fill="#001828" stroke="#001828"></path><path d="M159 204.4L230 206.1L237 178.3Z" fill="#041c2c" stroke="#041c2c"></path><path d="M729 269.9L718 195.1L652 217.3Z" fill="#162c3d" stroke="#162c3d"></path><path d="M682 152.6L712 118.4L657 106.7Z" fill="#001828" stroke="#001828"></path><path d="M165 361.6L198 359.9L160 356.7Z" fill="#001424" stroke="#001424"></path><path d="M755 315L687 374.9L696 377Z" fill="#001828" stroke="#001828"></path><path d="M729 269.9L756 237.4L718 195.1Z" fill="#001828" stroke="#001828"></path><path d="M743 172.3L718 164.6L718 195.1Z" fill="#1a3041" stroke="#1a3041"></path><path d="M718 195.1L718 164.6L685 171.3Z" fill="#001424" stroke="#001424"></path><path d="M712 118.4L652 77.6L657 106.7Z" fill="#162c3d" stroke="#162c3d"></path><path d="M657 106.7L652 77.6L624 120.9Z" fill="#001020" stroke="#001020"></path><path d="M488 66.6L517 0L502 0Z" fill="#001828" stroke="#001828"></path><path d="M239 88.6L257 91.4L269 44.9Z" fill="#001424" stroke="#001424"></path><path d="M264 113.7L200 124.6L237 178.3Z" fill="#001020" stroke="#001020"></path><path d="M514 73.6L517 0L488 66.6Z" fill="#041c2c" stroke="#041c2c"></path><path d="M443 24.7L440 0L414 27.7Z" fill="#001828" stroke="#001828"></path><path d="M269 44.9L257 91.4L348 72.6Z" fill="#001020" stroke="#001020"></path><path d="M447 0L440 0L443 24.7Z" fill="#001424" stroke="#001424"></path><path d="M748 371.9L755 315L696 377Z" fill="#000000" stroke="#000000"></path><path d="M738 266L756 237.4L729 269.9Z" fill="#000a1d" stroke="#000a1d"></path><path d="M514 73.6L532 74.9L517 0Z" fill="#162c3d" stroke="#162c3d"></path><path d="M517 0L532 74.9L573 65.7Z" fill="#000a1d" stroke="#000a1d"></path><path d="M453 587.3L488 543.1L435 496.1Z" fill="#162c3d" stroke="#162c3d"></path><path d="M488 543.1L473 585.3L511 546.1Z" fill="#082030" stroke="#082030"></path><path d="M713 493.6L721 478.1L666 463.7Z" fill="#162c3d" stroke="#162c3d"></path><path d="M159 204.4L168 284.1L195 250.1Z" fill="#0d2434" stroke="#0d2434"></path><path d="M195 250.1L168 284.1L212 274.3Z" fill="#000a1d" stroke="#000a1d"></path><path d="M650 0L517 0L573 65.7Z" fill="#000a1d" stroke="#000a1d"></path><path d="M746 404.4L748 371.9L696 377Z" fill="#041c2c" stroke="#041c2c"></path><path d="M746 404.4L696 377L702 407.9Z" fill="#112838" stroke="#112838"></path><path d="M746 404.4L702 407.9L740 461.6Z" fill="#000a1d" stroke="#000a1d"></path><path d="M418 600L453 587.3L435 496.1Z" fill="#001828" stroke="#001828"></path><path d="M797 268.1L756 237.4L738 266Z" fill="#001424" stroke="#001424"></path><path d="M303 27.7L348 72.6L312 0Z" fill="#0d2434" stroke="#0d2434"></path><path d="M257 91.4L239 88.6L264 113.7Z" fill="#001424" stroke="#001424"></path><path d="M764 116.4L712 118.4L718 164.6Z" fill="#001424" stroke="#001424"></path><path d="M718 164.6L712 118.4L682 152.6Z" fill="#001424" stroke="#001424"></path><path d="M756 237.4L743 172.3L718 195.1Z" fill="#001424" stroke="#001424"></path><path d="M740 461.6L702 407.9L681 442.4Z" fill="#0d2434" stroke="#0d2434"></path><path d="M797 268.1L738 266L755 315Z" fill="#000000" stroke="#000000"></path><path d="M251 430.7L248 507.3L300 446.6Z" fill="#001424" stroke="#001424"></path><path d="M404 600L418 600L435 496.1Z" fill="#1a3041" stroke="#1a3041"></path><path d="M212 472.3L248 507.3L251 430.7Z" fill="#001828" stroke="#001828"></path><path d="M212 472.3L251 430.7L149 389.4Z" fill="#000000" stroke="#000000"></path><path d="M160 356.7L198 359.9L218 314Z" fill="#001020" stroke="#001020"></path><path d="M312 0L348 72.6L414 27.7Z" fill="#041c2c" stroke="#041c2c"></path><path d="M248 507.3L268 531.4L327 517.4Z" fill="#1a3041" stroke="#1a3041"></path><path d="M149 389.4L251 430.7L198 359.9Z" fill="#1a3041" stroke="#1a3041"></path><path d="M248 507.3L257 525.1L268 531.4Z" fill="#1a3041" stroke="#1a3041"></path><path d="M168 284.1L160 356.7L218 314Z" fill="#082030" stroke="#082030"></path><path d="M165 361.6L149 389.4L198 359.9Z" fill="#041c2c" stroke="#041c2c"></path><path d="M175 88.9L200 124.6L239 88.6Z" fill="#1a3041" stroke="#1a3041"></path><path d="M239 88.6L200 124.6L264 113.7Z" fill="#001424" stroke="#001424"></path><path d="M232 537.4L257 525.1L248 507.3Z" fill="#0d2434" stroke="#0d2434"></path><path d="M404 600L383 476.1L327 517.4Z" fill="#041c2c" stroke="#041c2c"></path><path d="M453 587.3L451 637.1L473 585.3Z" fill="#0d2434" stroke="#0d2434"></path><path d="M303 27.7L269 44.9L348 72.6Z" fill="#041c2c" stroke="#041c2c"></path><path d="M367 600L404 600L327 517.4Z" fill="#001020" stroke="#001020"></path><path d="M151 175.4L159 204.4L237 178.3Z" fill="#001828" stroke="#001828"></path><path d="M145 381.7L165 361.6L160 356.7Z" fill="#041c2c" stroke="#041c2c"></path><path d="M666 463.7L721 478.1L681 442.4Z" fill="#001828" stroke="#001828"></path><path d="M670 534.3L545 485.4L607 600Z" fill="#001424" stroke="#001424"></path><path d="M562 600L511 546.1L473 585.3Z" fill="#0d2434" stroke="#0d2434"></path><path d="M562 600L545 485.4L511 546.1Z" fill="#041c2c" stroke="#041c2c"></path><path d="M670 534.3L713 493.6L666 463.7Z" fill="#082030" stroke="#082030"></path><path d="M341 600L327 517.4L323 600Z" fill="#001828" stroke="#001828"></path><path d="M341 600L367 600L327 517.4Z" fill="#0d2434" stroke="#0d2434"></path><path d="M447 0L458 -33.1L440 0Z" fill="#001020" stroke="#001020"></path><path d="M305 -36.1L312 0L414 27.7Z" fill="#162c3d" stroke="#162c3d"></path><path d="M501 0L458 -33.1L447 0Z" fill="#001828" stroke="#001828"></path><path d="M502 0L458 -33.1L501 0Z" fill="#162c3d" stroke="#162c3d"></path><path d="M517 0L458 -33.1L502 0Z" fill="#001424" stroke="#001424"></path><path d="M451 637.1L562 600L473 585.3Z" fill="#001828" stroke="#001828"></path><path d="M771 462.3L740 461.6L767 479.4Z" fill="#0d2434" stroke="#0d2434"></path><path d="M721 478.1L740 461.6L681 442.4Z" fill="#082030" stroke="#082030"></path><path d="M305 -36.1L414 27.7L440 0Z" fill="#001424" stroke="#001424"></path><path d="M303 27.7L258 0L269 44.9Z" fill="#041c2c" stroke="#041c2c"></path><path d="M797 268.1L786 225.3L756 237.4Z" fill="#162c3d" stroke="#162c3d"></path><path d="M756 237.4L788 210.3L743 172.3Z" fill="#041c2c" stroke="#041c2c"></path><path d="M764 116.4L731 88.7L712 118.4Z" fill="#112838" stroke="#112838"></path><path d="M797 268.1L755 315L832 303Z" fill="#001020" stroke="#001020"></path><path d="M755 315L748 371.9L794 375.7Z" fill="#000a1d" stroke="#000a1d"></path><path d="M145 381.7L149 389.4L165 361.6Z" fill="#001020" stroke="#001020"></path><path d="M145 381.7L160 356.7L114 314.1Z" fill="#041c2c" stroke="#041c2c"></path><path d="M149 389.4L188 474.3L212 472.3Z" fill="#000a1d" stroke="#000a1d"></path><path d="M197 519.1L232 537.4L248 507.3Z" fill="#1a3041" stroke="#1a3041"></path><path d="M114 314.1L160 356.7L168 284.1Z" fill="#001424" stroke="#001424"></path><path d="M173 523.4L197 519.1L188 474.3Z" fill="#0d2434" stroke="#0d2434"></path><path d="M232 537.4L268 531.4L257 525.1Z" fill="#0d2434" stroke="#0d2434"></path><path d="M323 600L327 517.4L304 591.3Z" fill="#082030" stroke="#082030"></path><path d="M164 101.4L151 175.4L200 124.6Z" fill="#162c3d" stroke="#162c3d"></path><path d="M200 124.6L151 175.4L237 178.3Z" fill="#0d2434" stroke="#0d2434"></path><path d="M107 281L114 314.1L168 284.1Z" fill="#000a1d" stroke="#000a1d"></path><path d="M113 160.3L150 176.4L151 175.4Z" fill="#1a3041" stroke="#1a3041"></path><path d="M151 175.4L150 176.4L159 204.4Z" fill="#001020" stroke="#001020"></path><path d="M258 0L243 39.9L269 44.9Z" fill="#000000" stroke="#000000"></path><path d="M269 44.9L243 39.9L239 88.6Z" fill="#112838" stroke="#112838"></path><path d="M794 375.7L748 371.9L746 404.4Z" fill="#0d2434" stroke="#0d2434"></path><path d="M833 200.6L788 210.3L841 220.1Z" fill="#1a3041" stroke="#1a3041"></path><path d="M786 225.3L788 210.3L756 237.4Z" fill="#112838" stroke="#112838"></path><path d="M764 116.4L718 164.6L743 172.3Z" fill="#000a1d" stroke="#000a1d"></path><path d="M712 118.4L731 88.7L652 77.6Z" fill="#001020" stroke="#001020"></path><path d="M652 77.6L650 0L573 65.7Z" fill="#0d2434" stroke="#0d2434"></path><path d="M517 0L650 0L458 -33.1Z" fill="#082030" stroke="#082030"></path><path d="M197 519.1L248 507.3L212 472.3Z" fill="#1a3041" stroke="#1a3041"></path><path d="M304 591.3L327 517.4L268 531.4Z" fill="#0d2434" stroke="#0d2434"></path><path d="M232 537.4L304 591.3L268 531.4Z" fill="#001828" stroke="#001828"></path><path d="M562 600L607 600L545 485.4Z" fill="#162c3d" stroke="#162c3d"></path><path d="M767 479.4L721 478.1L713 493.6Z" fill="#162c3d" stroke="#162c3d"></path><path d="M771 462.3L794 375.7L746 404.4Z" fill="#162c3d" stroke="#162c3d"></path><path d="M607 600L608 600L670 534.3Z" fill="#162c3d" stroke="#162c3d"></path><path d="M304 591.3L314 600L323 600Z" fill="#001020" stroke="#001020"></path><path d="M209 600L314 600L304 591.3Z" fill="#082030" stroke="#082030"></path><path d="M654 0.9L650 0L652 77.6Z" fill="#112838" stroke="#112838"></path><path d="M314 600L451 637.1L323 600Z" fill="#112838" stroke="#112838"></path><path d="M323 600L451 637.1L341 600Z" fill="#001828" stroke="#001828"></path><path d="M341 600L451 637.1L367 600Z" fill="#041c2c" stroke="#041c2c"></path><path d="M367 600L451 637.1L404 600Z" fill="#001424" stroke="#001424"></path><path d="M404 600L451 637.1L418 600Z" fill="#0d2434" stroke="#0d2434"></path><path d="M418 600L451 637.1L453 587.3Z" fill="#000a1d" stroke="#000a1d"></path><path d="M562 600L451 637.1L607 600Z" fill="#082030" stroke="#082030"></path><path d="M607 600L451 637.1L608 600Z" fill="#112838" stroke="#112838"></path><path d="M657 0L654 0.9L702 26.9Z" fill="#001020" stroke="#001020"></path><path d="M788 210.3L764 116.4L743 172.3Z" fill="#0d2434" stroke="#0d2434"></path><path d="M702 26.9L654 0.9L652 77.6Z" fill="#082030" stroke="#082030"></path><path d="M702 26.9L652 77.6L731 88.7Z" fill="#0d2434" stroke="#0d2434"></path><path d="M654 0.9L657 0L650 0Z" fill="#112838" stroke="#112838"></path><path d="M650 0L657 0L458 -33.1Z" fill="#162c3d" stroke="#162c3d"></path><path d="M107 281L168 284.1L116 210.1Z" fill="#000a1d" stroke="#000a1d"></path><path d="M188 474.3L197 519.1L212 472.3Z" fill="#1a3041" stroke="#1a3041"></path><path d="M232 537.4L209 600L304 591.3Z" fill="#041c2c" stroke="#041c2c"></path><path d="M119 423.9L188 474.3L149 389.4Z" fill="#0d2434" stroke="#0d2434"></path><path d="M126 400.9L149 389.4L145 381.7Z" fill="#000a1d" stroke="#000a1d"></path><path d="M169 73.6L175 88.9L239 88.6Z" fill="#001828" stroke="#001828"></path><path d="M767 479.4L740 461.6L721 478.1Z" fill="#041c2c" stroke="#041c2c"></path><path d="M740 461.6L771 462.3L746 404.4Z" fill="#112838" stroke="#112838"></path><path d="M767 479.4L713 493.6L728 554.3Z" fill="#000000" stroke="#000000"></path><path d="M451 637.1L632 600L608 600Z" fill="#001424" stroke="#001424"></path><path d="M608 600L632 600L670 534.3Z" fill="#001424" stroke="#001424"></path><path d="M175 88.9L164 101.4L200 124.6Z" fill="#001424" stroke="#001424"></path><path d="M116 210.1L168 284.1L159 204.4Z" fill="#001424" stroke="#001424"></path><path d="M114 314.1L126 400.9L145 381.7Z" fill="#041c2c" stroke="#041c2c"></path><path d="M762 67.7L702 26.9L731 88.7Z" fill="#0d2434" stroke="#0d2434"></path><path d="M312 0L258 0L303 27.7Z" fill="#082030" stroke="#082030"></path><path d="M243 39.9L169 73.6L239 88.6Z" fill="#000000" stroke="#000000"></path><path d="M305 -36.1L258 0L312 0Z" fill="#162c3d" stroke="#162c3d"></path><path d="M116 210.1L159 204.4L150 176.4Z" fill="#001828" stroke="#001828"></path><path d="M112 411.4L119 423.9L126 400.9Z" fill="#000a1d" stroke="#000a1d"></path><path d="M106 206.3L116 210.1L113 160.3Z" fill="#000000" stroke="#000000"></path><path d="M728 554.3L713 493.6L670 534.3Z" fill="#000a1d" stroke="#000a1d"></path><path d="M771 462.3L777 466.7L794 375.7Z" fill="#041c2c" stroke="#041c2c"></path><path d="M767 479.4L777 466.7L771 462.3Z" fill="#112838" stroke="#112838"></path><path d="M632 600L694 569.3L670 534.3Z" fill="#082030" stroke="#082030"></path><path d="M305 -36.1L248 0L258 0Z" fill="#000000" stroke="#000000"></path><path d="M258 0L248 0L243 39.9Z" fill="#001020" stroke="#001020"></path><path d="M175 88.9L169 73.6L164 101.4Z" fill="#0d2434" stroke="#0d2434"></path><path d="M458 -33.1L305 -36.1L440 0Z" fill="#000a1d" stroke="#000a1d"></path><path d="M173 523.4L201 545.1L197 519.1Z" fill="#001020" stroke="#001020"></path><path d="M197 519.1L201 545.1L232 537.4Z" fill="#000a1d" stroke="#000a1d"></path><path d="M116 210.1L98 277L107 281Z" fill="#082030" stroke="#082030"></path><path d="M107 281L98 277L114 314.1Z" fill="#082030" stroke="#082030"></path><path d="M165 52.7L169 73.6L243 39.9Z" fill="#082030" stroke="#082030"></path><path d="M113 160.3L116 210.1L150 176.4Z" fill="#082030" stroke="#082030"></path><path d="M305 -36.1L241 0L248 0Z" fill="#001020" stroke="#001020"></path><path d="M248 0L241 0L243 39.9Z" fill="#001828" stroke="#001828"></path><path d="M113 160.3L151 175.4L164 101.4Z" fill="#1a3041" stroke="#1a3041"></path><path d="M77 235L90 274.1L98 277Z" fill="#041c2c" stroke="#041c2c"></path><path d="M847 308.9L832 303L794 375.7Z" fill="#0d2434" stroke="#0d2434"></path><path d="M794 375.7L832 303L755 315Z" fill="#162c3d" stroke="#162c3d"></path><path d="M797 268.1L842 255.1L786 225.3Z" fill="#162c3d" stroke="#162c3d"></path><path d="M804 63.9L764 71.6L764 116.4Z" fill="#000000" stroke="#000000"></path><path d="M707 600L702 572.1L694 569.3Z" fill="#000a1d" stroke="#000a1d"></path><path d="M694 569.3L728 554.3L670 534.3Z" fill="#041c2c" stroke="#041c2c"></path><path d="M767 479.4L799 535.4L777 466.7Z" fill="#0d2434" stroke="#0d2434"></path><path d="M112 411.4L126 400.9L50 331.7Z" fill="#112838" stroke="#112838"></path><path d="M126 400.9L119 423.9L149 389.4Z" fill="#041c2c" stroke="#041c2c"></path><path d="M88 422.4L112 411.4L50 331.7Z" fill="#082030" stroke="#082030"></path><path d="M833 200.6L764 116.4L788 210.3Z" fill="#041c2c" stroke="#041c2c"></path><path d="M764 116.4L764 71.6L731 88.7Z" fill="#001424" stroke="#001424"></path><path d="M145 484.3L173 523.4L188 474.3Z" fill="#0d2434" stroke="#0d2434"></path><path d="M145 484.3L188 474.3L119 423.9Z" fill="#001020" stroke="#001020"></path><path d="M99 465.7L145 484.3L119 423.9Z" fill="#001020" stroke="#001020"></path><path d="M764 71.6L762 67.7L731 88.7Z" fill="#082030" stroke="#082030"></path><path d="M702 572.1L728 554.3L694 569.3Z" fill="#000a1d" stroke="#000a1d"></path><path d="M77 235L98 277L116 210.1Z" fill="#112838" stroke="#112838"></path><path d="M98 277L90 274.1L114 314.1Z" fill="#000000" stroke="#000000"></path><path d="M120 81.6L113 160.3L164 101.4Z" fill="#0d2434" stroke="#0d2434"></path><path d="M106 206.3L77 235L116 210.1Z" fill="#112838" stroke="#112838"></path><path d="M305 -36.1L225 0L241 0Z" fill="#082030" stroke="#082030"></path><path d="M241 0L225 0L243 39.9Z" fill="#0d2434" stroke="#0d2434"></path><path d="M755 0L702 0L702 26.9Z" fill="#041c2c" stroke="#041c2c"></path><path d="M702 26.9L702 0L657 0Z" fill="#000a1d" stroke="#000a1d"></path><path d="M657 0L702 0L458 -33.1Z" fill="#001020" stroke="#001020"></path><path d="M832 303L842 255.1L797 268.1Z" fill="#162c3d" stroke="#162c3d"></path><path d="M841 220.1L788 210.3L786 225.3Z" fill="#1a3041" stroke="#1a3041"></path><path d="M788 31.9L772 24.7L762 67.7Z" fill="#001424" stroke="#001424"></path><path d="M163 31.9L165 52.7L243 39.9Z" fill="#001828" stroke="#001828"></path><path d="M169 73.6L120 81.6L164 101.4Z" fill="#001424" stroke="#001424"></path><path d="M878 361.6L847 308.9L794 375.7Z" fill="#082030" stroke="#082030"></path><path d="M832 303L847 308.9L842 255.1Z" fill="#001424" stroke="#001424"></path><path d="M853 205.3L841 220.1L900 223.4Z" fill="#001424" stroke="#001424"></path><path d="M842 255.1L841 220.1L786 225.3Z" fill="#162c3d" stroke="#162c3d"></path><path d="M717 600L730 570.1L702 572.1Z" fill="#112838" stroke="#112838"></path><path d="M702 572.1L730 570.1L728 554.3Z" fill="#001020" stroke="#001020"></path><path d="M728 554.3L799 535.4L767 479.4Z" fill="#001424" stroke="#001424"></path><path d="M14 212.3L77 235L106 206.3Z" fill="#001424" stroke="#001424"></path><path d="M50 331.7L126 400.9L114 314.1Z" fill="#001828" stroke="#001828"></path><path d="M734 613.1L707 600L632 600Z" fill="#001020" stroke="#001020"></path><path d="M632 600L707 600L694 569.3Z" fill="#001424" stroke="#001424"></path><path d="M225 0L163 31.9L243 39.9Z" fill="#162c3d" stroke="#162c3d"></path><path d="M165 52.7L120 81.6L169 73.6Z" fill="#112838" stroke="#112838"></path><path d="M113 160.3L59 132.7L106 206.3Z" fill="#112838" stroke="#112838"></path><path d="M50 331.7L114 314.1L90 274.1Z" fill="#162c3d" stroke="#162c3d"></path><path d="M112 411.4L88 422.4L119 423.9Z" fill="#082030" stroke="#082030"></path><path d="M203 600L201 545.1L164 600Z" fill="#000000" stroke="#000000"></path><path d="M900 239.1L841 220.1L842 255.1Z" fill="#001424" stroke="#001424"></path><path d="M841 220.1L853 205.3L833 200.6Z" fill="#000000" stroke="#000000"></path><path d="M837 73.6L804 63.9L764 116.4Z" fill="#001828" stroke="#001828"></path><path d="M734 613.1L717 600L707 600Z" fill="#1a3041" stroke="#1a3041"></path><path d="M707 600L717 600L702 572.1Z" fill="#000000" stroke="#000000"></path><path d="M858 445.4L794 375.7L777 466.7Z" fill="#1a3041" stroke="#1a3041"></path><path d="M128 536.4L173 523.4L145 484.3Z" fill="#0d2434" stroke="#0d2434"></path><path d="M203 600L209 600L201 545.1Z" fill="#000a1d" stroke="#000a1d"></path><path d="M201 545.1L209 600L232 537.4Z" fill="#162c3d" stroke="#162c3d"></path><path d="M314 600L209 600L451 637.1Z" fill="#041c2c" stroke="#041c2c"></path><path d="M163 31.9L120 81.6L165 52.7Z" fill="#000000" stroke="#000000"></path><path d="M88 422.4L99 465.7L119 423.9Z" fill="#082030" stroke="#082030"></path><path d="M164 600L201 545.1L173 523.4Z" fill="#162c3d" stroke="#162c3d"></path><path d="M209 600L203 600L451 637.1Z" fill="#001020" stroke="#001020"></path><path d="M762 67.7L772 24.7L702 26.9Z" fill="#041c2c" stroke="#041c2c"></path><path d="M804 63.9L762 67.7L764 71.6Z" fill="#001424" stroke="#001424"></path><path d="M837 73.6L764 116.4L878 127.4Z" fill="#082030" stroke="#082030"></path><path d="M788 31.9L755 0L772 24.7Z" fill="#112838" stroke="#112838"></path><path d="M772 24.7L755 0L702 26.9Z" fill="#000000" stroke="#000000"></path><path d="M702 0L755 0L458 -33.1Z" fill="#001424" stroke="#001424"></path><path d="M858 445.4L863 397.7L794 375.7Z" fill="#041c2c" stroke="#041c2c"></path><path d="M847 308.9L880 295.1L842 255.1Z" fill="#112838" stroke="#112838"></path><path d="M799 535.4L728 554.3L730 570.1Z" fill="#041c2c" stroke="#041c2c"></path><path d="M804 63.9L788 31.9L762 67.7Z" fill="#082030" stroke="#082030"></path><path d="M787 600L799 535.4L730 570.1Z" fill="#1a3041" stroke="#1a3041"></path><path d="M20 297.9L50 331.7L90 274.1Z" fill="#112838" stroke="#112838"></path><path d="M88 422.4L69 474.3L99 465.7Z" fill="#001424" stroke="#001424"></path><path d="M99 465.7L128 536.4L145 484.3Z" fill="#001020" stroke="#001020"></path><path d="M900 330L880 295.1L847 308.9Z" fill="#000a1d" stroke="#000a1d"></path><path d="M863 397.7L878 361.6L794 375.7Z" fill="#162c3d" stroke="#162c3d"></path><path d="M451 637.1L734 613.1L632 600Z" fill="#0d2434" stroke="#0d2434"></path><path d="M717 600L734 613.1L730 570.1Z" fill="#001828" stroke="#001828"></path><path d="M799 535.4L858 445.4L777 466.7Z" fill="#001828" stroke="#001828"></path><path d="M863 397.7L900 400.7L878 361.6Z" fill="#041c2c" stroke="#041c2c"></path><path d="M82 64.7L87 83.7L120 81.6Z" fill="#1a3041" stroke="#1a3041"></path><path d="M120 81.6L87 83.7L113 160.3Z" fill="#0d2434" stroke="#0d2434"></path><path d="M77 235L20 297.9L90 274.1Z" fill="#162c3d" stroke="#162c3d"></path><path d="M128 536.4L164 600L173 523.4Z" fill="#162c3d" stroke="#162c3d"></path><path d="M203 600L97 604.1L451 637.1Z" fill="#001424" stroke="#001424"></path><path d="M878 127.4L764 116.4L833 200.6Z" fill="#1a3041" stroke="#1a3041"></path><path d="M804 63.9L830 33.9L788 31.9Z" fill="#000000" stroke="#000000"></path><path d="M788 31.9L843 0L755 0Z" fill="#1a3041" stroke="#1a3041"></path><path d="M878 127.4L833 200.6L853 205.3Z" fill="#001424" stroke="#001424"></path><path d="M87 83.7L59 132.7L113 160.3Z" fill="#112838" stroke="#112838"></path><path d="M82 64.7L81 83.6L87 83.7Z" fill="#000000" stroke="#000000"></path><path d="M87 83.7L81 83.6L59 132.7Z" fill="#000a1d" stroke="#000a1d"></path><path d="M99 465.7L65 483.1L128 536.4Z" fill="#041c2c" stroke="#041c2c"></path><path d="M128 536.4L97 604.1L164 600Z" fill="#112838" stroke="#112838"></path><path d="M0 462.7L69 474.3L88 422.4Z" fill="#0d2434" stroke="#0d2434"></path><path d="M878 361.6L900 330L847 308.9Z" fill="#0d2434" stroke="#0d2434"></path><path d="M880 295.1L900 239.1L842 255.1Z" fill="#001828" stroke="#001828"></path><path d="M900 400.7L900 330L878 361.6Z" fill="#041c2c" stroke="#041c2c"></path><path d="M900 330L900 239.1L880 295.1Z" fill="#162c3d" stroke="#162c3d"></path><path d="M900 239.1L900 223.4L841 220.1Z" fill="#112838" stroke="#112838"></path><path d="M54 496.6L65 483.1L0 462.7Z" fill="#000a1d" stroke="#000a1d"></path><path d="M69 474.3L65 483.1L99 465.7Z" fill="#001424" stroke="#001424"></path><path d="M73 34.9L82 64.7L120 81.6Z" fill="#112838" stroke="#112838"></path><path d="M81 83.6L35 91.4L59 132.7Z" fill="#0d2434" stroke="#0d2434"></path><path d="M73 34.9L120 81.6L163 31.9Z" fill="#000000" stroke="#000000"></path><path d="M0 247.1L20 297.9L77 235Z" fill="#041c2c" stroke="#041c2c"></path><path d="M0 462.7L65 483.1L69 474.3Z" fill="#041c2c" stroke="#041c2c"></path><path d="M900 177.3L878 127.4L853 205.3Z" fill="#0d2434" stroke="#0d2434"></path><path d="M734 613.1L787 600L730 570.1Z" fill="#041c2c" stroke="#041c2c"></path><path d="M900 427.6L896 414.6L858 445.4Z" fill="#112838" stroke="#112838"></path><path d="M843 0L830 33.9L900 6.9Z" fill="#000a1d" stroke="#000a1d"></path><path d="M837 73.6L830 33.9L804 63.9Z" fill="#001424" stroke="#001424"></path><path d="M900 422.9L896 414.6L900 427.6Z" fill="#000000" stroke="#000000"></path><path d="M858 445.4L896 414.6L863 397.7Z" fill="#001424" stroke="#001424"></path><path d="M896 414.6L900 400.7L863 397.7Z" fill="#162c3d" stroke="#162c3d"></path><path d="M900 223.4L900 177.3L853 205.3Z" fill="#0d2434" stroke="#0d2434"></path><path d="M900 427.6L858 445.4L936 488.3Z" fill="#082030" stroke="#082030"></path><path d="M896 414.6L900 422.9L900 400.7Z" fill="#112838" stroke="#112838"></path><path d="M0 165.3L14 212.3L59 132.7Z" fill="#112838" stroke="#112838"></path><path d="M59 132.7L14 212.3L106 206.3Z" fill="#082030" stroke="#082030"></path><path d="M900 542.4L858 445.4L799 535.4Z" fill="#000000" stroke="#000000"></path><path d="M0 358.6L88 422.4L50 331.7Z" fill="#000a1d" stroke="#000a1d"></path><path d="M65 483.1L54 496.6L128 536.4Z" fill="#0d2434" stroke="#0d2434"></path><path d="M900 144.6L891 120.4L878 127.4Z" fill="#000a1d" stroke="#000a1d"></path><path d="M878 127.4L891 120.4L837 73.6Z" fill="#001828" stroke="#001828"></path><path d="M900 177.3L900 144.6L878 127.4Z" fill="#1a3041" stroke="#1a3041"></path><path d="M-31 281L0 320.9L20 297.9Z" fill="#001424" stroke="#001424"></path><path d="M20 297.9L0 320.9L50 331.7Z" fill="#1a3041" stroke="#1a3041"></path><path d="M0 244L0 247.1L77 235Z" fill="#162c3d" stroke="#162c3d"></path><path d="M14 212.3L0 244L77 235Z" fill="#162c3d" stroke="#162c3d"></path><path d="M74 0L73 34.9L163 31.9Z" fill="#001828" stroke="#001828"></path><path d="M82 64.7L59 49.9L81 83.6Z" fill="#0d2434" stroke="#0d2434"></path><path d="M14 212.3L0 165.3L0 244Z" fill="#082030" stroke="#082030"></path><path d="M74 0L163 31.9L72 -23.1Z" fill="#001424" stroke="#001424"></path><path d="M0 320.9L0 358.6L50 331.7Z" fill="#0d2434" stroke="#0d2434"></path><path d="M900 144.6L900 120.7L891 120.4Z" fill="#000a1d" stroke="#000a1d"></path><path d="M891 120.4L900 6.9L837 73.6Z" fill="#041c2c" stroke="#041c2c"></path><path d="M73 34.9L59 49.9L82 64.7Z" fill="#001424" stroke="#001424"></path><path d="M59 49.9L35 91.4L81 83.6Z" fill="#162c3d" stroke="#162c3d"></path><path d="M900 6.9L830 33.9L837 73.6Z" fill="#000a1d" stroke="#000a1d"></path><path d="M830 33.9L843 0L788 31.9Z" fill="#001828" stroke="#001828"></path><path d="M755 0L843 0L458 -33.1Z" fill="#001424" stroke="#001424"></path><path d="M900 144.6L917 135.7L900 120.7Z" fill="#082030" stroke="#082030"></path><path d="M900 120.7L900 6.9L891 120.4Z" fill="#0d2434" stroke="#0d2434"></path><path d="M900 177.3L917 135.7L900 144.6Z" fill="#0d2434" stroke="#0d2434"></path><path d="M900 223.4L917 135.7L900 177.3Z" fill="#112838" stroke="#112838"></path><path d="M900 239.1L917 135.7L900 223.4Z" fill="#162c3d" stroke="#162c3d"></path><path d="M936 488.3L917 135.7L900 239.1Z" fill="#000000" stroke="#000000"></path><path d="M936 488.3L900 239.1L900 330Z" fill="#1a3041" stroke="#1a3041"></path><path d="M936 488.3L900 330L900 400.7Z" fill="#000a1d" stroke="#000a1d"></path><path d="M936 488.3L900 400.7L900 422.9Z" fill="#001828" stroke="#001828"></path><path d="M0 151.6L0 165.3L59 132.7Z" fill="#041c2c" stroke="#041c2c"></path><path d="M57 562.1L97 604.1L128 536.4Z" fill="#0d2434" stroke="#0d2434"></path><path d="M164 600L97 604.1L203 600Z" fill="#0d2434" stroke="#0d2434"></path><path d="M0 122.4L59 132.7L35 91.4Z" fill="#0d2434" stroke="#0d2434"></path><path d="M0 122.4L0 151.6L59 132.7Z" fill="#1a3041" stroke="#1a3041"></path><path d="M73 34.9L64 0L59 49.9Z" fill="#0d2434" stroke="#0d2434"></path><path d="M0 81.9L0 122.4L35 91.4Z" fill="#001828" stroke="#001828"></path><path d="M72 -23.1L163 31.9L225 0Z" fill="#001424" stroke="#001424"></path><path d="M0 518.1L57 562.1L54 496.6Z" fill="#112838" stroke="#112838"></path><path d="M54 496.6L57 562.1L128 536.4Z" fill="#0d2434" stroke="#0d2434"></path><path d="M0 81.9L35 91.4L0 52.7Z" fill="#082030" stroke="#082030"></path><path d="M72 -23.1L64 0L74 0Z" fill="#000a1d" stroke="#000a1d"></path><path d="M74 0L64 0L73 34.9Z" fill="#041c2c" stroke="#041c2c"></path><path d="M57 562.1L78 600L97 604.1Z" fill="#0d2434" stroke="#0d2434"></path><path d="M-19 432.6L0 462.7L88 422.4Z" fill="#162c3d" stroke="#162c3d"></path><path d="M57 562.1L57 584.3L78 600Z" fill="#001424" stroke="#001424"></path><path d="M0 151.6L-31 281L0 165.3Z" fill="#112838" stroke="#112838"></path><path d="M0 165.3L-31 281L0 244Z" fill="#001828" stroke="#001828"></path><path d="M0 244L-31 281L0 247.1Z" fill="#0d2434" stroke="#0d2434"></path><path d="M0 247.1L-31 281L20 297.9Z" fill="#001828" stroke="#001828"></path><path d="M0 320.9L-31 281L0 358.6Z" fill="#000000" stroke="#000000"></path><path d="M0 358.6L-19 432.6L88 422.4Z" fill="#162c3d" stroke="#162c3d"></path><path d="M0 122.4L-31 281L0 151.6Z" fill="#1a3041" stroke="#1a3041"></path><path d="M734 613.1L841 614.1L787 600Z" fill="#000000" stroke="#000000"></path><path d="M787 600L841 614.1L799 535.4Z" fill="#1a3041" stroke="#1a3041"></path><path d="M862 618.1L841 614.1L734 613.1Z" fill="#001020" stroke="#001020"></path><path d="M0 558.3L57 584.3L57 562.1Z" fill="#001020" stroke="#001020"></path><path d="M305 -36.1L72 -23.1L225 0Z" fill="#041c2c" stroke="#041c2c"></path><path d="M0 52.7L35 91.4L59 49.9Z" fill="#162c3d" stroke="#162c3d"></path><path d="M-31 281L-19 432.6L0 358.6Z" fill="#001020" stroke="#001020"></path><path d="M0 462.7L0 503.4L54 496.6Z" fill="#001828" stroke="#001828"></path><path d="M841 614.1L900 542.4L799 535.4Z" fill="#001424" stroke="#001424"></path><path d="M900 427.6L936 488.3L900 422.9Z" fill="#041c2c" stroke="#041c2c"></path><path d="M0 52.7L59 49.9L6 0Z" fill="#112838" stroke="#112838"></path><path d="M0 122.4L0 81.9L-31 281Z" fill="#082030" stroke="#082030"></path><path d="M-19 432.6L0 503.4L0 462.7Z" fill="#001020" stroke="#001020"></path><path d="M0 600L56 600L57 584.3Z" fill="#001828" stroke="#001828"></path><path d="M57 584.3L56 600L78 600Z" fill="#041c2c" stroke="#041c2c"></path><path d="M78 600L56 600L97 604.1Z" fill="#112838" stroke="#112838"></path><path d="M900 542.4L936 488.3L858 445.4Z" fill="#112838" stroke="#112838"></path><path d="M451 637.1L862 618.1L734 613.1Z" fill="#041c2c" stroke="#041c2c"></path><path d="M841 614.1L900 584.3L900 542.4Z" fill="#001424" stroke="#001424"></path><path d="M900 542.4L900 584.3L936 488.3Z" fill="#001424" stroke="#001424"></path><path d="M-19 432.6L0 518.1L0 503.4Z" fill="#1a3041" stroke="#1a3041"></path><path d="M0 503.4L0 518.1L54 496.6Z" fill="#162c3d" stroke="#162c3d"></path><path d="M908 0L900 6.9L900 120.7Z" fill="#000000" stroke="#000000"></path><path d="M6 0L59 49.9L64 0Z" fill="#000a1d" stroke="#000a1d"></path><path d="M0 81.9L0 52.7L-31 281Z" fill="#000000" stroke="#000000"></path><path d="M908 0L900 0L900 6.9Z" fill="#041c2c" stroke="#041c2c"></path><path d="M900 6.9L900 0L843 0Z" fill="#112838" stroke="#112838"></path><path d="M843 0L900 0L458 -33.1Z" fill="#162c3d" stroke="#162c3d"></path><path d="M890 600L900 584.3L841 614.1Z" fill="#1a3041" stroke="#1a3041"></path><path d="M862 618.1L890 600L841 614.1Z" fill="#000000" stroke="#000000"></path><path d="M890 600L900 590.1L900 584.3Z" fill="#082030" stroke="#082030"></path><path d="M900 584.3L900 590.1L936 488.3Z" fill="#000a1d" stroke="#000a1d"></path><path d="M917 135.7L908 0L900 120.7Z" fill="#112838" stroke="#112838"></path><path d="M900 0L908 0L458 -33.1Z" fill="#041c2c" stroke="#041c2c"></path><path d="M862 618.1L900 600L890 600Z" fill="#000000" stroke="#000000"></path><path d="M890 600L900 600L900 590.1Z" fill="#1a3041" stroke="#1a3041"></path><path d="M900 590.1L900 600L936 488.3Z" fill="#001020" stroke="#001020"></path><path d="M-19 432.6L0 558.3L0 518.1Z" fill="#1a3041" stroke="#1a3041"></path><path d="M0 518.1L0 558.3L57 562.1Z" fill="#041c2c" stroke="#041c2c"></path><path d="M72 -23.1L6 0L64 0Z" fill="#112838" stroke="#112838"></path><path d="M0 52.7L0 0L-31 281Z" fill="#041c2c" stroke="#041c2c"></path><path d="M72 -23.1L0 0L6 0Z" fill="#082030" stroke="#082030"></path><path d="M6 0L0 0L0 52.7Z" fill="#1a3041" stroke="#1a3041"></path><path d="M-19 432.6L0 600L0 558.3Z" fill="#1a3041" stroke="#1a3041"></path><path d="M0 558.3L0 600L57 584.3Z" fill="#001020" stroke="#001020"></path><path d="M56 600L0 600L97 604.1Z" fill="#1a3041" stroke="#1a3041"></path><path d="M97 604.1L0 600L451 637.1Z" fill="#001828" stroke="#001828"></path></g></svg>