<?xml version="1.0" standalone="no"?>
<!DOCTYPE svg PUBLIC "-//W3C//DTD SVG 20010904//EN"
 "http://www.w3.org/TR/2001/REC-SVG-20010904/DTD/svg10.dtd">
<svg version="1.0" xmlns="http://www.w3.org/2000/svg"
 width="300.000000pt" height="300.000000pt" viewBox="0 0 300.000000 300.000000"
 preserveAspectRatio="xMidYMid meet">

<g transform="translate(0.000000,300.000000) scale(0.100000,-0.100000)"
fill="#000000" stroke="none">
<path d="M1686 2311 c-8 -19 -8 -25 2 -29 10 -3 10 -7 1 -18 -7 -8 -9 -27 -5
-45 6 -31 -12 -78 -41 -107 -7 -8 -12 -22 -9 -31 2 -9 7 -30 11 -48 5 -25 11
-31 28 -30 27 2 56 35 57 65 0 12 5 22 10 22 6 0 10 -11 10 -25 0 -14 -4 -25
-10 -25 -5 0 -10 -12 -9 -27 1 -28 1 -28 16 7 8 19 17 52 19 75 2 22 6 51 10
65 6 21 4 23 -7 13 -7 -7 -16 -13 -20 -13 -10 0 -5 41 6 59 4 8 8 30 7 48 -1
34 -1 34 31 28 43 -9 50 -18 49 -57 -2 -42 -57 -213 -110 -340 -23 -54 -39
-98 -37 -98 2 0 16 17 30 37 14 21 25 33 25 28 0 -6 26 49 59 120 104 233 131
272 206 301 41 15 62 44 33 44 -7 0 -89 1 -182 3 l-169 2 -11 -24z"/>
<path d="M1050 2311 c-90 -7 -102 -27 -27 -46 60 -15 70 -25 115 -116 35 -70
40 -75 102 -106 36 -18 73 -33 83 -33 25 0 21 -18 -5 -23 l-23 -4 23 -2 c12 0
25 5 28 12 2 7 -14 59 -36 115 -26 65 -40 114 -38 135 3 29 7 33 46 41 23 6
42 16 42 23 0 14 -153 16 -310 4z"/>
<path d="M1241 1994 c0 -11 3 -14 6 -6 3 7 2 16 -1 19 -3 4 -6 -2 -5 -13z"/>
<path d="M1260 1888 c0 -8 12 -43 26 -79 14 -35 55 -140 90 -233 83 -213 104
-256 125 -256 11 0 29 29 58 96 47 109 48 114 23 109 -15 -2 -31 22 -80 123
-33 70 -70 151 -82 179 -19 45 -26 52 -46 49 -12 -3 -24 -1 -26 4 -2 5 -22 12
-45 16 -34 5 -43 3 -43 -8z"/>
<path d="M1622 1761 c-26 -47 -29 -63 -4 -30 28 39 43 69 34 69 -5 0 -18 -17
-30 -39z"/>
<path d="M1597 1773 c-4 -3 -7 -11 -7 -17 0 -6 5 -5 12 2 6 6 9 14 7 17 -3 3
-9 2 -12 -2z"/>
<path d="M1172 1685 c0 -16 2 -22 5 -12 2 9 2 23 0 30 -3 6 -5 -1 -5 -18z"/>
<path d="M1596 1596 c-3 -13 -9 -31 -12 -40 -9 -23 23 -21 35 2 10 20 4 62 -9
62 -4 0 -11 -11 -14 -24z m10 -34 c-17 -16 -18 -16 -5 5 7 12 15 20 18 17 3
-2 -3 -12 -13 -22z"/>
<path d="M433 1031 c39 -82 43 -88 54 -68 15 26 16 40 4 33 -9 -6 -51 82 -51
108 0 10 -9 16 -24 16 l-25 0 42 -89z"/>
<path d="M526 1105 c4 -8 7 -15 9 -15 1 0 8 7 15 15 10 13 9 15 -8 15 -15 0
-20 -5 -16 -15z"/>
<path d="M710 1111 c23 -4 39 -14 47 -31 18 -35 16 -95 -2 -110 -9 -7 -13 -15
-10 -18 3 -3 16 5 30 18 57 54 17 151 -62 149 l-38 -2 35 -6z"/>
<path d="M895 1030 c0 -79 2 -90 18 -90 15 0 17 11 17 90 0 79 -2 90 -17 90
-16 0 -18 -11 -18 -90z"/>
<path d="M1120 1113 c14 -3 33 -12 43 -20 15 -15 17 -15 17 -1 0 19 -22 29
-58 27 l-27 -2 25 -4z"/>
<path d="M1270 1030 l0 -90 55 0 c49 0 55 2 55 21 0 19 -1 19 -16 5 -8 -9 -26
-16 -40 -16 -21 0 -24 4 -24 41 0 40 1 41 30 37 19 -3 30 0 30 7 0 7 -11 10
-30 7 -29 -4 -30 -3 -30 32 0 31 3 36 23 36 13 0 28 -5 35 -12 9 -9 12 -8 12
5 0 14 -10 17 -50 17 l-50 0 0 -90z"/>
<path d="M1668 1110 c18 -4 39 -16 47 -26 15 -20 20 -8 9 20 -4 11 -18 16 -48
15 l-41 -1 33 -8z"/>
<path d="M1825 1030 l0 -91 60 3 c49 2 60 6 63 22 4 17 3 18 -19 2 -13 -9 -34
-16 -46 -16 -22 0 -23 3 -23 85 0 74 -2 85 -17 85 -16 0 -18 -11 -18 -90z"/>
<path d="M2030 1073 c21 -33 30 -59 30 -90 0 -34 4 -43 18 -43 25 0 24 87 -1
115 -10 11 -20 30 -23 42 -4 16 -14 23 -30 23 l-24 0 30 -47z"/>
<path d="M2114 1084 c-6 -19 -9 -32 -5 -27 3 4 17 20 30 36 23 25 23 27 5 27
-13 0 -23 -11 -30 -36z"/>
<path d="M2238 1030 c3 -76 6 -90 20 -90 15 0 17 11 14 86 -3 85 -3 86 20 82
20 -3 23 -9 23 -46 0 -47 7 -52 29 -20 20 29 20 34 -4 58 -14 14 -33 20 -62
20 l-43 0 3 -90z"/>
<path d="M2440 1030 c0 -81 2 -90 18 -90 15 0 19 8 18 43 l-1 42 49 3 49 3 -5
-45 c-5 -40 -3 -46 13 -46 17 0 19 9 19 90 0 80 -2 90 -18 90 -14 0 -17 -7
-14 -40 l4 -40 -52 0 -53 0 6 40 c4 35 2 40 -14 40 -17 0 -19 -8 -19 -90z"/>
<path d="M642 1087 c-48 -51 -10 -149 56 -146 12 0 11 3 -5 9 -31 13 -51 81
-35 123 15 39 11 43 -16 14z"/>
<path d="M1041 1084 c-30 -38 -27 -80 8 -115 16 -16 38 -29 48 -29 17 1 17 1
0 11 -41 24 -55 108 -24 147 6 8 6 12 -1 12 -6 0 -20 -12 -31 -26z"/>
<path d="M1592 1087 c-22 -23 -29 -68 -16 -102 7 -17 55 -45 76 -44 7 0 3 4
-10 9 -41 17 -57 107 -25 142 24 27 0 22 -25 -5z"/>
<path d="M1695 975 c0 -46 26 -44 36 3 6 28 4 32 -15 32 -17 0 -21 -6 -21 -35z"/>
<path d="M1153 963 c-22 -22 -22 -23 -2 -23 11 0 22 7 25 15 11 27 -1 30 -23
8z"/>
<path d="M610 771 c0 -6 4 -13 10 -16 6 -3 7 1 4 9 -7 18 -14 21 -14 7z"/>
<path d="M2300 776 c0 -2 7 -7 16 -10 8 -3 12 -2 9 4 -6 10 -25 14 -25 6z"/>
<path d="M648 753 c7 -3 16 -2 19 1 4 3 -2 6 -13 5 -11 0 -14 -3 -6 -6z"/>
<path d="M861 744 c0 -11 3 -14 6 -6 3 7 2 16 -1 19 -3 4 -6 -2 -5 -13z"/>
<path d="M1401 744 c0 -11 3 -14 6 -6 3 7 2 16 -1 19 -3 4 -6 -2 -5 -13z"/>
</g>
</svg>
